<?xml version="1.0" standalone="no"?>
<!DOCTYPE svg PUBLIC "-//W3C//DTD SVG 20010904//EN"
 "http://www.w3.org/TR/2001/REC-SVG-20010904/DTD/svg10.dtd">
<svg version="1.0" xmlns="http://www.w3.org/2000/svg"
 width="500.000000pt" height="500.000000pt" viewBox="0 0 500.000000 500.000000"
 preserveAspectRatio="xMidYMid meet">
<metadata>
Created by potrace 1.15, written by Peter Selinger 2001-2017
</metadata>
<g transform="translate(0.000000,500.000000) scale(0.100000,-0.100000)"
fill="#000000" stroke="none">
<path d="M3470 4341 c0 -5 -8 -12 -18 -15 -20 -7 -28 -52 -12 -71 10 -13 7
-14 -75 -29 -31 -5 -31 -6 -15 -16 13 -8 13 -10 -2 -10 -9 0 -22 -8 -27 -17
-6 -10 -11 -12 -11 -5 0 15 -60 17 -60 1 0 -5 5 -7 12 -3 7 5 8 3 3 -6 -5 -8
-1 -18 10 -27 11 -7 14 -13 7 -13 -6 0 -9 -6 -6 -14 3 -8 0 -17 -5 -21 -6 -3
-9 -11 -6 -16 4 -5 0 -9 -8 -9 -7 0 -14 -7 -14 -15 0 -9 6 -14 14 -11 11 5 13
-3 8 -35 -4 -28 -3 -39 4 -34 7 3 11 -2 11 -14 0 -11 5 -23 10 -26 6 -4 8 -10
5 -15 -3 -4 2 -10 10 -14 8 -3 15 -13 15 -23 0 -14 2 -15 9 -4 7 11 10 10 18
-4 6 -9 25 -21 44 -25 28 -7 22 -9 -36 -9 -95 1 -97 0 -90 -11 6 -10 -38 -7
-67 5 -13 5 -18 2 -18 -9 0 -9 -7 -16 -16 -16 -9 0 -12 -5 -8 -12 4 -7 -2 -4
-13 7 -11 11 -18 25 -16 30 3 6 -5 -1 -16 -14 -12 -12 -18 -28 -14 -34 3 -6 1
-7 -5 -3 -7 4 -12 2 -12 -4 0 -6 -4 -9 -9 -6 -5 3 -20 -4 -35 -15 -14 -11 -26
-16 -26 -10 0 6 4 11 9 11 4 0 6 12 3 26 -3 18 -7 22 -13 13 -6 -10 -10 -7
-17 11 l-10 25 -10 -26 c-6 -15 -17 -29 -24 -32 -10 -4 -10 -6 0 -6 6 -1 12
-7 12 -15 0 -8 3 -16 8 -19 4 -2 1 -2 -5 -1 -7 2 -13 -4 -13 -12 0 -8 -5 -12
-10 -9 -6 4 -7 11 -4 17 4 7 2 8 -4 4 -6 -4 -8 -14 -5 -23 5 -13 2 -15 -11
-10 -10 4 -20 7 -22 7 -3 0 -2 6 1 13 4 6 0 3 -9 -7 -8 -10 -13 -22 -11 -26 3
-4 -10 -6 -27 -5 -29 3 -30 2 -14 -10 17 -13 17 -13 -2 -19 -10 -4 -27 -15
-38 -25 -20 -18 -20 -18 -18 25 2 35 -2 46 -17 54 -10 6 -18 16 -16 22 1 6 -4
13 -12 16 -9 3 -11 0 -6 -8 6 -9 3 -10 -12 -2 -11 6 -25 7 -35 1 -11 -6 -18
-4 -22 6 -7 18 -33 20 -39 3 -2 -7 1 -20 6 -29 6 -9 7 -25 2 -35 -5 -11 -7
-22 -7 -26 1 -5 -3 -8 -8 -8 -6 0 -10 -5 -10 -11 0 -5 5 -7 10 -4 8 5 13 -4
12 -25 0 -3 6 -11 14 -18 8 -7 14 -10 14 -7 0 4 7 0 15 -9 9 -8 23 -13 33 -10
14 4 14 3 -2 -8 -10 -7 -28 -22 -40 -34 -12 -11 -27 -19 -34 -16 -9 3 -12 -3
-10 -14 2 -15 -2 -18 -21 -16 -20 3 -23 0 -18 -17 3 -12 1 -21 -5 -21 -5 0 -6
-4 -3 -10 3 -5 -1 -10 -9 -10 -9 0 -18 -11 -22 -25 -6 -25 -34 -35 -34 -12 0
7 -9 18 -20 25 -13 8 -20 9 -20 1 0 -6 -8 -8 -19 -4 -10 3 -24 -1 -31 -10 -8
-10 -9 -15 -1 -15 6 0 11 -10 11 -22 0 -12 12 -33 28 -46 15 -13 22 -21 15
-18 -6 4 -14 -3 -18 -14 -3 -11 -13 -20 -22 -20 -9 0 -13 -6 -9 -15 3 -8 1
-15 -4 -15 -6 0 -10 -10 -10 -22 0 -20 -1 -20 -18 -5 -16 15 -20 15 -40 1 -20
-14 -21 -17 -7 -30 8 -9 13 -20 10 -25 -4 -5 1 -6 9 -3 18 7 20 -4 7 -25 -5
-7 -14 -10 -21 -6 -9 6 -9 3 -2 -12 16 -28 0 -49 -22 -28 -13 14 -16 14 -16 2
0 -9 -5 -17 -12 -19 -8 -3 -4 -12 10 -26 19 -19 20 -22 5 -22 -15 0 -16 -2 -3
-10 9 -6 11 -10 3 -10 -7 0 -10 -7 -6 -17 5 -16 4 -16 -8 0 -14 17 -15 17 -16
-2 -1 -12 4 -21 10 -21 7 0 4 -5 -7 -11 -15 -9 -16 -13 -5 -20 11 -7 11 -9 -3
-9 -12 0 -16 -6 -13 -22 3 -12 0 -27 -6 -34 -6 -7 -8 -18 -4 -24 3 -5 2 -10
-2 -10 -5 0 -8 -14 -7 -30 1 -17 -2 -32 -6 -35 -5 -3 -7 -14 -5 -25 2 -11 1
-20 -3 -20 -4 0 -7 -33 -7 -73 1 -39 -1 -76 -3 -81 -3 -5 -16 27 -29 70 -33
107 -50 143 -85 175 -17 15 -28 32 -24 37 3 5 -5 13 -18 16 -15 3 -23 13 -22
23 0 10 -5 18 -11 19 -7 1 -15 3 -18 4 -4 2 -13 5 -30 9 -3 0 -1 10 5 21 8 15
8 20 -3 20 -7 0 -19 -6 -26 -12 -10 -11 -14 -10 -22 5 -6 9 -18 17 -28 17 -14
0 -17 7 -14 33 3 24 2 29 -6 17 -6 -8 -11 -11 -11 -6 0 5 -7 3 -15 -4 -12 -10
-13 -16 -3 -27 8 -10 -1 -8 -24 5 -26 15 -39 17 -47 9 -8 -8 -11 -8 -11 1 0 6
-7 9 -15 6 -12 -5 -14 0 -9 25 5 24 3 31 -10 31 -9 0 -16 5 -16 10 0 6 -7 6
-19 -2 -12 -7 -18 -21 -17 -40 2 -23 -1 -27 -16 -22 -11 3 -26 0 -34 -7 -12
-10 -17 -8 -29 7 -11 15 -15 16 -16 4 -1 -8 -1 -19 0 -23 1 -5 -3 -6 -9 -2 -5
3 -10 0 -10 -7 -1 -8 -7 -5 -17 7 -11 14 -14 15 -10 3 3 -10 -1 -18 -11 -21
-9 -3 -24 -8 -32 -11 -12 -5 -15 0 -14 21 1 40 -14 61 -42 55 -16 -3 -24 0
-24 10 0 8 -7 15 -15 15 -10 0 -13 -7 -9 -22 3 -13 -1 -27 -10 -34 -20 -17 -2
-67 27 -75 21 -5 21 -5 2 -23 -11 -10 -33 -24 -48 -32 -15 -8 -25 -20 -23 -28
3 -7 -1 -16 -8 -20 -7 -5 -16 -15 -19 -23 -4 -12 -6 -11 -6 3 -1 18 -18 22
-38 9 -10 -6 -9 -14 2 -35 13 -25 12 -28 -12 -47 -14 -11 -23 -26 -20 -34 3
-7 -1 -23 -9 -35 -8 -11 -12 -21 -7 -21 4 0 1 -5 -7 -10 -12 -8 -12 -10 -1
-10 9 0 10 -4 3 -12 -5 -7 -9 -28 -7 -46 1 -18 -2 -35 -7 -38 -4 -3 -8 -1 -8
4 0 16 -50 63 -60 57 -6 -3 -10 -2 -10 4 0 6 -7 8 -16 4 -9 -3 -20 0 -24 7 -7
11 -12 10 -25 -4 -16 -16 -19 -16 -38 1 -19 18 -19 17 -13 -4 5 -15 1 -28 -13
-42 -10 -10 -21 -27 -23 -38 -2 -12 -11 -17 -25 -15 -14 2 -26 -4 -32 -17 -9
-16 -7 -23 11 -35 16 -11 25 -13 35 -4 10 8 13 5 13 -14 0 -13 9 -32 21 -42
13 -11 19 -25 16 -37 -5 -20 7 -26 18 -9 9 14 21 12 39 -6 9 -8 16 -11 16 -5
0 6 8 11 18 11 27 0 80 36 87 61 10 32 24 4 19 -38 -3 -22 0 -33 8 -33 9 0 8
-3 -2 -10 -12 -8 -12 -10 -1 -10 8 0 11 -7 8 -20 -3 -11 -2 -18 3 -15 10 6 22
-23 15 -35 -3 -5 8 -23 25 -40 33 -34 37 -42 16 -34 -9 3 -15 -4 -18 -20 -7
-33 29 -45 42 -13 6 15 9 17 9 6 1 -9 8 -22 16 -29 8 -7 13 -15 10 -19 -2 -4
16 -20 40 -36 42 -26 50 -45 20 -45 -7 0 -18 -13 -23 -29 -8 -24 -7 -32 5 -42
8 -7 13 -23 10 -35 -4 -24 9 -27 30 -7 7 6 22 9 34 6 15 -4 20 -2 15 5 -3 6
-2 13 4 17 6 4 8 11 5 16 -4 5 -1 9 5 9 8 0 8 6 0 20 -12 23 -3 25 24 5 10 -8
23 -12 27 -9 5 3 6 -3 2 -13 -5 -14 -3 -16 7 -6 16 15 40 6 40 -16 1 -14 3
-13 15 3 12 15 17 17 29 7 8 -7 23 -10 34 -7 15 5 18 1 16 -24 -1 -21 4 -33
17 -41 13 -6 19 -6 19 1 0 5 7 10 16 10 13 0 15 7 11 30 -5 23 -3 28 8 23 9
-3 15 1 15 8 0 9 3 10 11 2 8 -8 20 -7 45 3 29 12 33 12 28 0 -3 -9 4 -19 17
-26 20 -11 21 -10 17 20 -4 27 -2 31 15 26 13 -3 21 1 24 15 6 21 18 25 28 9
3 -5 14 -10 23 -10 12 0 13 3 4 12 -7 7 -12 15 -12 19 0 6 31 19 55 23 6 1 9
9 7 19 -2 9 2 18 8 18 5 1 16 2 23 3 6 0 13 7 13 14 1 6 2 17 3 23 0 5 6 7 11
4 6 -3 10 -1 10 5 0 6 9 20 20 32 11 12 20 30 20 40 0 10 5 18 10 18 6 0 10 8
10 18 0 10 5 23 11 29 7 7 12 20 13 30 5 42 19 92 25 88 4 -2 7 -38 7 -79 -1
-42 2 -76 6 -76 3 0 5 -8 3 -17 -1 -10 0 -22 3 -28 3 -5 7 -26 8 -46 1 -21 6
-45 12 -55 12 -21 4 -56 -11 -47 -5 3 -7 1 -4 -5 4 -5 15 -8 26 -5 15 4 18 0
15 -23 -1 -15 -9 -31 -16 -36 -10 -7 -8 -8 5 -4 9 3 17 1 17 -4 0 -6 8 -10 18
-10 14 0 15 -2 2 -10 -13 -8 -12 -10 4 -10 19 0 19 -1 -2 -22 -17 -19 -18 -26
-8 -40 8 -11 17 -14 26 -8 21 13 31 1 19 -22 -8 -16 -8 -19 1 -13 7 4 16 1 21
-6 13 -21 11 -32 -7 -25 -8 3 -12 2 -9 -4 3 -6 1 -10 -5 -10 -6 0 -9 -4 -6 -9
4 -5 0 -12 -6 -15 -11 -5 -11 -7 0 -12 6 -3 10 -9 7 -13 -5 -9 39 -6 54 4 6 3
11 0 11 -9 0 -8 6 -17 13 -19 9 -4 9 -6 0 -6 -17 -1 -4 -31 13 -31 8 0 17 -7
20 -15 4 -8 9 -13 13 -10 4 2 8 -2 8 -10 0 -7 -11 -16 -24 -20 -16 -4 -23 -13
-23 -30 0 -14 -4 -25 -8 -25 -5 0 -9 -7 -9 -15 0 -10 10 -15 29 -15 16 0 28
-6 28 -12 0 -7 5 -5 11 5 6 9 14 15 20 12 5 -4 9 6 9 21 l0 27 20 -23 c11 -13
20 -32 20 -43 0 -17 2 -18 17 -6 11 10 14 10 9 2 -4 -7 -3 -13 2 -13 5 0 7
-12 4 -26 -4 -24 -3 -25 17 -15 11 7 22 8 22 4 1 -4 2 -15 3 -23 0 -8 7 -16
14 -16 6 -1 17 -2 22 -3 6 0 10 -8 10 -16 0 -8 3 -14 8 -13 11 2 42 -13 42
-22 0 -4 -11 -6 -25 -5 -14 2 -25 -1 -25 -6 0 -6 -3 -8 -7 -6 -11 7 -28 -15
-28 -33 0 -8 -6 -14 -13 -12 -16 3 -15 -8 3 -32 17 -23 20 -66 5 -66 -7 0 -7
-6 0 -20 14 -26 29 -25 39 1 7 20 9 20 22 6 13 -14 16 -14 32 1 10 9 17 12 15
7 -2 -6 2 -11 7 -12 6 -2 10 3 10 10 0 6 7 18 16 24 11 9 16 26 15 52 -1 33 2
38 15 31 26 -14 41 -38 33 -52 -4 -7 -4 -10 1 -6 4 4 15 2 23 -5 9 -6 13 -7 9
-1 -3 6 0 11 8 11 9 0 14 -7 13 -16 -2 -11 6 -15 31 -16 19 0 36 -6 38 -12 3
-7 12 -9 21 -6 10 3 13 2 6 -4 -16 -13 -24 -42 -13 -49 6 -3 8 -12 5 -19 -2
-7 1 -16 9 -19 7 -2 16 2 19 10 3 9 11 12 17 8 8 -5 10 2 7 24 -4 28 -3 29 19
19 13 -5 23 -15 23 -21 0 -6 5 -4 10 4 7 11 10 11 10 2 0 -8 5 -10 12 -6 7 5
9 2 5 -9 -3 -8 1 -21 8 -27 8 -7 12 -17 8 -23 -4 -6 -1 -7 6 -3 7 5 10 10 7
14 -9 8 27 30 41 25 7 -3 13 -11 13 -19 0 -16 9 -18 30 -5 8 6 18 7 23 4 5 -3
3 -9 -4 -14 -11 -7 -11 -9 -1 -9 7 0 15 7 18 15 4 8 10 15 16 15 5 0 6 -5 3
-10 -7 -12 -2 -12 90 -12 39 0 63 -2 55 -5 -37 -12 -45 -14 -49 -13 -2 1 -9
-6 -14 -15 -8 -14 -11 -15 -18 -4 -7 11 -9 10 -9 -4 0 -10 -7 -20 -15 -23 -8
-4 -12 -10 -9 -15 3 -5 -1 -12 -9 -15 -9 -3 -13 -13 -10 -25 3 -11 2 -19 -3
-17 -8 3 -16 -7 -13 -14 0 -2 3 -15 5 -30 4 -22 1 -26 -11 -22 -8 3 -15 1 -15
-5 0 -7 6 -14 13 -17 8 -3 14 -10 15 -17 2 -22 7 -42 15 -54 5 -9 2 -13 -8
-13 -11 0 -15 -5 -11 -16 3 -8 2 -12 -4 -9 -6 3 -10 1 -10 -4 0 -12 20 -15 58
-12 14 1 21 -2 17 -8 -3 -7 0 -8 9 -5 11 4 16 0 16 -11 0 -11 5 -15 15 -11 8
3 15 1 15 -5 0 -6 4 -7 10 -4 5 3 10 2 10 -3 0 -5 14 -8 32 -7 26 2 29 0 15
-10 -23 -16 -21 -41 3 -65 11 -11 20 -25 20 -32 0 -7 16 6 36 27 l36 39 -25
22 -24 21 33 12 c19 7 34 17 34 23 0 5 7 8 15 4 9 -3 15 0 15 9 0 8 4 15 10
15 5 0 9 5 7 12 -1 8 9 11 30 10 27 -3 31 -1 26 17 -3 12 -12 21 -20 21 -10 0
-13 6 -9 16 3 9 6 18 6 20 0 3 4 2 10 -1 7 -4 7 2 0 19 -7 20 -6 24 5 19 21
-7 19 17 -2 34 -11 9 -12 12 -3 7 12 -5 12 -4 3 6 -6 7 -9 18 -7 24 2 6 -6 23
-18 36 -13 14 -23 28 -23 32 0 10 -66 55 -91 61 -10 2 -2 3 19 2 24 -2 35 1
30 7 -4 7 -1 8 8 2 19 -12 40 -11 68 3 13 6 30 9 39 6 9 -4 13 -2 9 4 -4 7 0
10 10 8 10 -1 17 -8 15 -16 -2 -9 0 -10 11 -1 8 7 18 8 22 4 5 -4 5 -2 2 4 -4
6 4 16 18 22 20 9 25 8 30 -8 9 -29 36 -14 29 17 -6 21 -3 24 13 21 11 -1 28
4 38 12 17 13 18 13 11 0 -4 -8 1 -5 12 8 21 23 43 32 24 9 -14 -16 -4 -57 13
-57 8 0 20 -3 29 -6 12 -5 14 4 13 48 -2 41 1 53 13 53 8 1 19 -4 23 -10 5 -6
7 -2 6 10 -2 33 0 38 16 25 18 -15 36 -5 28 16 -3 9 0 14 8 12 8 -2 13 3 11
10 -1 8 1 11 6 8 9 -5 39 22 82 74 17 20 19 20 11 4 -18 -36 11 -129 33 -107
3 4 6 1 6 -6 0 -7 4 -9 10 -6 6 3 10 -3 10 -14 0 -26 16 -27 29 -4 5 10 13 14
17 10 4 -4 15 0 25 9 11 10 19 12 24 5 9 -15 45 -14 45 2 0 7 -5 18 -12 25
-15 15 -20 70 -7 78 5 3 7 10 3 15 -3 5 -10 7 -15 4 -5 -4 -9 1 -9 10 0 8 -11
20 -25 25 -14 5 -25 12 -25 15 0 4 5 3 12 -1 7 -4 8 -3 4 5 -4 6 -13 8 -19 4
-19 -12 -47 -14 -47 -3 0 5 9 15 20 22 11 7 20 22 20 33 0 17 2 17 10 5 8 -12
10 -10 10 9 0 17 4 22 16 17 12 -5 15 -2 12 12 -5 17 15 46 25 35 3 -2 14 0
24 6 11 6 13 11 5 11 -7 0 -10 5 -7 10 3 5 1 10 -5 10 -6 0 1 20 15 45 15 24
26 47 26 50 -3 23 1 26 13 10 7 -10 20 -16 28 -12 9 3 20 1 26 -5 7 -7 12 -4
16 10 4 11 16 22 27 25 12 3 18 10 14 16 -3 6 -11 9 -16 6 -5 -4 -9 0 -9 7 -1
35 -38 54 -72 37 -15 -8 -15 -6 -1 21 8 17 12 37 10 45 -3 7 1 16 9 19 9 4 12
11 7 18 -12 20 -10 79 3 74 6 -2 17 1 23 7 8 8 11 7 12 -4 0 -7 5 -3 10 10 12
30 -6 54 -36 47 -19 -5 -21 -1 -21 34 0 25 4 37 10 33 6 -3 5 0 -1 8 -17 17
-16 29 1 29 9 0 14 9 13 21 -1 16 -7 19 -24 16 -22 -4 -30 11 -24 46 0 4 -4 7
-10 7 -5 0 -7 5 -4 10 4 6 10 8 14 6 4 -3 8 2 8 10 0 8 -6 13 -13 10 -17 -7
-33 21 -26 46 3 12 0 18 -9 16 -9 -2 -14 5 -13 18 0 14 -4 20 -13 17 -7 -3
-13 2 -13 11 0 9 -5 16 -11 16 -5 0 -7 5 -3 12 5 8 2 9 -9 5 -10 -3 -17 -2
-17 3 0 5 -18 19 -40 30 -22 11 -40 25 -40 30 0 9 37 29 50 27 9 -2 67 58 66
68 0 6 7 9 16 9 10 -1 15 3 11 9 -3 5 1 15 10 22 8 6 15 20 14 30 -1 12 7 24
21 30 26 12 29 25 5 25 -13 0 -14 3 -5 12 7 7 12 25 12 41 0 23 3 27 13 19 12
-11 39 -2 39 13 -1 4 -9 13 -18 20 -15 10 -16 16 -6 27 6 8 9 17 6 20 -3 3 -7
19 -9 35 -3 26 -1 29 18 26 35 -6 48 8 38 42 -5 17 -10 26 -10 20 -1 -5 -12
-10 -25 -10 -22 0 -24 4 -21 34 2 18 9 37 15 41 9 5 6 10 -9 15 -16 5 -20 12
-16 26 4 11 0 30 -9 44 -15 23 -15 23 14 15 19 -5 30 -5 30 1 0 6 4 8 9 5 5
-3 12 6 15 19 4 14 10 23 15 20 5 -2 12 2 15 11 4 10 -1 18 -14 21 -10 3 -22
14 -25 24 -4 12 -11 16 -18 12 -7 -4 -19 -8 -27 -10 -8 -1 -20 -10 -27 -19 -7
-10 -14 -14 -14 -8 -1 5 -3 19 -4 32 -1 13 -12 36 -24 52 -12 18 -17 31 -11
35 6 4 8 11 5 16 -4 5 -1 9 6 9 7 0 9 3 6 7 -6 5 -18 8 -60 12 -5 1 -5 10 -2
21 5 14 2 20 -9 20 -10 0 -16 9 -16 23 0 16 -3 18 -9 9 -6 -10 -10 -7 -15 12
-3 14 -12 25 -18 23 -7 -1 -14 6 -16 16 -2 12 2 16 17 14 11 -2 23 -6 27 -10
9 -9 54 35 54 53 0 13 1 13 10 0 6 -10 8 3 6 38 -1 34 2 57 11 64 22 18 15 38
-13 38 -14 0 -23 -4 -19 -9 3 -5 1 -12 -4 -16 -6 -3 -15 4 -21 15 -6 11 -16
17 -22 14 -6 -4 -17 1 -25 12 -13 18 -14 18 -19 -4 -4 -12 -10 -19 -15 -16 -5
3 -9 0 -9 -7 0 -7 -3 -10 -6 -6 -23 22 -53 -85 -31 -112 6 -9 -12 9 -41 39
-29 30 -52 51 -52 47 0 -4 -6 -2 -14 5 -7 7 -12 18 -9 24 6 17 -16 28 -31 15
-10 -8 -16 -8 -25 3 -7 8 -24 17 -39 21 -24 6 -25 8 -9 16 12 7 17 21 15 45
-2 28 -6 34 -25 34 -16 0 -27 -8 -33 -26 -7 -17 -16 -24 -28 -22 -9 2 -16 9
-15 15 2 7 -9 9 -28 6 -27 -4 -30 -2 -27 19 2 18 -2 23 -20 24 -13 1 -26 -5
-29 -12 -2 -7 -11 -10 -19 -7 -9 3 -13 12 -9 21 3 9 3 13 -1 9 -4 -4 -13 -2
-21 5 -11 9 -13 8 -11 -1 2 -8 -5 -15 -15 -16 -9 -2 -15 0 -12 5 5 8 -14 11
-85 13 -22 1 -40 5 -40 9 0 4 -8 5 -17 1 -10 -3 0 8 22 26 22 18 40 36 40 40
0 3 10 17 23 31 13 14 20 31 17 41 -3 9 2 24 10 33 16 16 12 41 -6 31 -5 -4
-5 5 1 20 5 14 6 24 1 21 -5 -3 -11 4 -14 15 -4 15 -2 19 9 15 10 -4 14 2 14
19 0 28 -3 29 -31 15 -18 -10 -20 -8 -19 15 1 10 -28 35 -39 35 -6 0 -11 4
-11 8 0 5 -12 14 -27 21 -20 9 -23 15 -15 23 18 18 14 40 -12 71 -24 28 -36
34 -36 18z"/>
</g>
</svg>
